#!OML:ASF F:\VICON\USERDATA\INSTALL\rory3\rory3.ASF
:FULLY-SPECIFIED
:DEGREES
453
root -9.2595 17.814 3.56754 -0.767328 -56.5658 4.66417
lowerback 2.21085 3.01224 -4.22454
upperback 1.80763 3.91465 -2.8495
thorax 0.536692 1.91492 -0.633775
lowerneck -7.76317 0.9357 -4.45999
upperneck 30.9476 1.7631 -0.253533
head 11.2641 0.0494667 0.848492
rclavicle 7.59357e-014 -4.37326e-014
rhumerus -34.7711 -2.39861 -84.2282
rradius 29.8757
rwrist -3.88343
rhand -11.1724 16.3259
rfingers 7.12502
rthumb 14.8544 -13.1216
lclavicle 7.59357e-014 -4.37326e-014
lhumerus -36.957 -4.02207 82.1969
lradius 40.1488
lwrist 13.7249
lhand -2.87742 27.7319
lfingers 7.12502
lthumb 22.8316 56.4005
rfemur 5.47764 4.35215 20.9018
rtibia 24.2596
rfoot -18.782 -9.43399
rtoes -18.0406
lfemur -22.2309 -1.23367 -23.9578
ltibia 18.9936
lfoot -6.90504 19.5953
ltoes -5.05893
454
root -9.3203 17.8239 3.64619 -0.873082 -56.4394 4.75489
lowerback 2.23693 2.96703 -4.39691
upperback 1.79359 3.84799 -2.89371
thorax 0.501024 1.88024 -0.584388
lowerneck -7.7205 0.957842 -4.45421
upperneck 31.0057 1.81193 -0.330533
head 11.2787 0.0602821 0.824506
rclavicle 5.96354e-016 -1.59028e-014
rhumerus -35.0154 -2.46507 -84.2063
rradius 29.7662
rwrist -3.90355
rhand -11.1067 16.0842
rfingers 7.12502
rthumb 14.9177 -13.3586
lclavicle 5.96354e-016 -1.59028e-014
lhumerus -36.8488 -3.6485 81.8722
lradius 39.5737
lwrist 13.546
lhand -2.85975 27.823
lfingers 7.12502
lthumb 22.8486 56.4895
rfemur 5.0683 4.09173 20.6585
rtibia 25.5986
rfoot -18.3338 -9.05544
rtoes -18.7307
lfemur -22.0288 -1.10667 -24.1859
ltibia 19.233
lfoot -6.99817 19.2376
ltoes -4.05575
455
root -9.3788 17.8299 3.72282 -0.961037 -56.3563 4.81542
lowerback 2.29008 2.93159 -4.56276
upperback 1.78379 3.7926 -2.92539
thorax 0.45416 1.85141 -0.52734
lowerneck -7.72452 1.01322 -4.45608
upperneck 31.0788 1.90882 -0.390406
head 11.3071 0.0935527 0.814092
rclavicle -6.5102e-014 -3.65764e-014
rhumerus -35.2359 -2.60136 -84.1422
rradius 29.6023
rwrist -3.73969
rhand -11.0755 16.0041
rfingers 7.12502
rthumb 14.9478 -13.4364
lclavicle -6.5102e-014 -3.65764e-014
lhumerus -36.7421 -3.19271 81.5007
lradius 39.0921
lwrist 13.3069
lhand -2.79578 28.0569
lfingers 7.12502
lthumb 22.91 56.7158
rfemur 4.57014 3.86728 20.4604
rtibia 27.0674
rfoot -17.8093 -8.83378
rtoes -19.7353
lfemur -21.8143 -0.777907 -24.4409
ltibia 19.4422
lfoot -6.80461 18.7909
ltoes -4.49382
456
root -9.43714 17.8348 3.8023 -1.1973 -56.3167 5.02558
lowerback 2.33018 2.96394 -4.71609
upperback 1.79513 3.8285 -3.02288
thorax 0.439585 1.86752 -0.545458
lowerneck -7.76719 1.03577 -4.42303
upperneck 31.1705 1.94868 -0.423514
head 11.3517 0.108324 0.801402
rclavicle 1.2752e-013 4.77083e-015
rhumerus -35.5216 -2.5604 -84.1696
rradius 29.5683
rwrist -3.95911
rhand -11.0229 16.0426
rfingers 7.12502
rthumb 14.9985 -13.3942
lclavicle 1.2752e-013 4.77083e-015
lhumerus -36.5939 -2.93422 81.21
lradius 38.5792
lwrist 13.0141
lhand -2.98318 28.2307
lfingers 7.12502
lthumb 22.7301 56.9118
rfemur 4.00223 3.66191 20.144
rtibia 28.6795
rfoot -17.2599 -8.4877
rtoes -20.1243
lfemur -21.5286 -0.529187 -24.7644
ltibia 19.6244
lfoot -6.87283 18.4373
ltoes -4.22485
457
root -9.49405 17.843 3.88474 -1.28521 -56.2866 5.03127
lowerback 2.36561 3.01668 -4.69993
upperback 1.81984 3.89651 -3.09441
thorax 0.449623 1.90107 -0.630578
lowerneck -7.87205 1.03965 -4.36848
upperneck 31.3306 1.96609 -0.469141
head 11.4369 0.111812 0.778488
rclavicle -8.60738e-014 5.1684e-014
rhumerus -35.7731 -2.6278 -84.1039
rradius 29.5042
rwrist -4.16981
rhand -10.8619 16.079
rfingers 7.12502
rthumb 15.1535 -13.3462
lclavicle -8.60738e-014 5.1684e-014
lhumerus -36.4002 -2.92952 81.046
lradius 38.0114
lwrist 12.947
lhand -3.42848 28.3882
lfingers 7.12502
lthumb 22.3027 57.1211
rfemur 3.38235 3.39533 19.8993
rtibia 30.4066
rfoot -16.6557 -7.899
rtoes -19.5491
lfemur -21.1892 -0.424991 -24.9334
ltibia 19.7814
lfoot -7.04198 18.226
ltoes -3.82806
458
root -9.55031 17.8517 3.96612 -1.35519 -56.2907 5.03493
lowerback 2.37772 3.02238 -4.76099
upperback 1.84291 3.90254 -3.10949
thorax 0.463603 1.90276 -0.612489
lowerneck -8.0236 1.08538 -4.39095
upperneck 31.5419 2.06359 -0.524724
head 11.5505 0.138548 0.774996
rclavicle 5.33737e-014 -2.38542e-015
rhumerus -35.8819 -2.79011 -83.945
rradius 29.2811
rwrist -3.98727
rhand -10.7277 16.0217
rfingers 7.12502
rthumb 15.2828 -13.3937
lclavicle 5.33737e-014 -2.38542e-015
lhumerus -36.2586 -2.45735 80.7759
lradius 37.5196
lwrist 12.6471
lhand -3.65026 28.3899
lfingers 7.12502
lthumb 22.0898 57.1481
rfemur 2.66852 3.13196 19.6579
rtibia 32.2428
rfoot -16.0176 -7.29321
rtoes -18.8525
lfemur -20.8469 -0.204086 -25.115
ltibia 19.8869
lfoot -7.1729 17.9692
ltoes -3.76618
